M48
; DRILL file {KiCad 8.0.0} date 2025-10-17T15:11:48-0300
; FORMAT={-:-/ absolute / inch / decimal}
; #@! TF.CreationDate,2025-10-17T15:11:48-03:00
; #@! TF.GenerationSoftware,Kicad,Pcbnew,8.0.0
; #@! TF.FileFunction,Plated,1,2,PTH
FMAT,2
INCH
; #@! TA.AperFunction,Plated,PTH,ViaDrill
T1C0.0295
; #@! TA.AperFunction,Plated,PTH,ComponentDrill
T2C0.0300
; #@! TA.AperFunction,Plated,PTH,ComponentDrill
T3C0.0315
; #@! TA.AperFunction,Plated,PTH,ComponentDrill
T4C0.0354
; #@! TA.AperFunction,Plated,PTH,ComponentDrill
T5C0.0394
; #@! TA.AperFunction,Plated,PTH,ComponentDrill
T6C0.0433
%
G90
G05
T1
X4.7401Y-9.2814
X4.8101Y-9.1214
X4.9701Y-9.2814
X4.9801Y-9.1214
T2
X4.6051Y-9.2114
X4.7051Y-9.2114
X4.8051Y-9.2114
X4.9051Y-9.2114
X5.0051Y-9.2114
X5.1051Y-9.2114
X5.2051Y-9.2114
X5.3051Y-9.2114
T3
X4.1801Y-8.8714
X4.1801Y-8.9914
X4.1817Y-9.1114
X4.2801Y-9.1114
X4.4301Y-9.1814
X4.4301Y-9.2798
X4.5801Y-8.8714
X4.5801Y-8.9914
X5.3976Y-8.749
X5.3976Y-9.149
X5.5226Y-8.749
X5.5226Y-9.149
X5.6476Y-8.749
X5.6476Y-9.149
X5.7726Y-8.749
X5.7726Y-9.149
X5.8926Y-8.499
X5.8926Y-8.899
X6.1501Y-8.4414
X6.1501Y-8.5398
T4
X5.4978Y-9.279
X5.4978Y-9.379
X5.7526Y-9.279
X5.7526Y-9.379
X6.0126Y-9.279
X6.0126Y-9.379
X6.0226Y-8.499
X6.0226Y-8.899
T5
X4.2101Y-8.6214
X4.3101Y-8.6214
X4.4101Y-8.6214
X4.5101Y-8.6214
X4.6047Y-9.3598
X4.7047Y-9.3598
X4.8047Y-9.3598
X4.9047Y-9.3598
X5.0047Y-9.3598
X5.1047Y-9.3598
X5.2047Y-9.3598
X5.3047Y-9.3598
X5.9201Y-9.0214
X5.9201Y-9.1214
T6
X5.5001Y-8.4704
X5.5001Y-8.6475
X5.756Y-8.4704
X5.756Y-8.6475
M30
