M48
; DRILL file {KiCad 8.0.0} date 2025-10-18T16:25:50-0300
; FORMAT={-:-/ absolute / inch / decimal}
; #@! TF.CreationDate,2025-10-18T16:25:50-03:00
; #@! TF.GenerationSoftware,Kicad,Pcbnew,8.0.0
; #@! TF.FileFunction,Plated,1,2,PTH
FMAT,2
INCH
; #@! TA.AperFunction,Plated,PTH,ViaDrill
T1C0.0295
; #@! TA.AperFunction,Plated,PTH,ComponentDrill
T2C0.0300
; #@! TA.AperFunction,Plated,PTH,ComponentDrill
T3C0.0315
; #@! TA.AperFunction,Plated,PTH,ComponentDrill
T4C0.0354
; #@! TA.AperFunction,Plated,PTH,ComponentDrill
T5C0.0394
; #@! TA.AperFunction,Plated,PTH,ComponentDrill
T6C0.0433
%
G90
G05
T1
X1.5816Y-2.033
X1.6516Y-1.873
X1.8116Y-2.033
X1.8216Y-1.873
T2
X1.4466Y-1.963
X1.5466Y-1.963
X1.6466Y-1.963
X1.7466Y-1.963
X1.8466Y-1.963
X1.9466Y-1.963
X2.0466Y-1.963
X2.1466Y-1.963
T3
X1.0216Y-1.623
X1.0216Y-1.743
X1.0231Y-1.863
X1.1216Y-1.863
X1.2716Y-1.933
X1.2716Y-2.0314
X1.4216Y-1.623
X1.4216Y-1.743
X2.239Y-1.5006
X2.239Y-1.9006
X2.364Y-1.5006
X2.364Y-1.9006
X2.489Y-1.5006
X2.489Y-1.9006
X2.614Y-1.5006
X2.614Y-1.9006
X2.734Y-1.2506
X2.734Y-1.6506
X2.9916Y-1.193
X2.9916Y-1.2914
T4
X2.3392Y-2.0306
X2.3392Y-2.1306
X2.594Y-2.0306
X2.594Y-2.1306
X2.854Y-2.0306
X2.854Y-2.1306
X2.864Y-1.2506
X2.864Y-1.6506
T5
X1.0516Y-1.373
X1.1516Y-1.373
X1.2516Y-1.373
X1.3516Y-1.373
X1.4462Y-2.1114
X1.5462Y-2.1114
X1.6462Y-2.1114
X1.7462Y-2.1114
X1.8462Y-2.1114
X1.9462Y-2.1114
X2.0462Y-2.1114
X2.1462Y-2.1114
X2.7616Y-1.773
X2.7616Y-1.873
T6
X2.3416Y-1.222
X2.3416Y-1.3991
X2.5975Y-1.222
X2.5975Y-1.3991
M30
