%TF.GenerationSoftware,KiCad,Pcbnew,8.0.0*%
%TF.CreationDate,2025-10-18T16:25:46-03:00*%
%TF.ProjectId,NodoVibraciones,4e6f646f-5669-4627-9261-63696f6e6573,v0.0.0.1*%
%TF.SameCoordinates,Original*%
%TF.FileFunction,Legend,Bot*%
%TF.FilePolarity,Positive*%
%FSLAX46Y46*%
G04 Gerber Fmt 4.6, Leading zero omitted, Abs format (unit mm)*
G04 Created by KiCad (PCBNEW 8.0.0) date 2025-10-18 16:25:46*
%MOMM*%
%LPD*%
G01*
G04 APERTURE LIST*
%ADD10C,0.150000*%
%ADD11C,0.120000*%
G04 APERTURE END LIST*
D10*
X30957333Y-39176819D02*
X30957333Y-39891104D01*
X30957333Y-39891104D02*
X31004952Y-40033961D01*
X31004952Y-40033961D02*
X31100190Y-40129200D01*
X31100190Y-40129200D02*
X31243047Y-40176819D01*
X31243047Y-40176819D02*
X31338285Y-40176819D01*
X30481142Y-40176819D02*
X30481142Y-39176819D01*
X30481142Y-39176819D02*
X30100190Y-39176819D01*
X30100190Y-39176819D02*
X30004952Y-39224438D01*
X30004952Y-39224438D02*
X29957333Y-39272057D01*
X29957333Y-39272057D02*
X29909714Y-39367295D01*
X29909714Y-39367295D02*
X29909714Y-39510152D01*
X29909714Y-39510152D02*
X29957333Y-39605390D01*
X29957333Y-39605390D02*
X30004952Y-39653009D01*
X30004952Y-39653009D02*
X30100190Y-39700628D01*
X30100190Y-39700628D02*
X30481142Y-39700628D01*
X28957333Y-40176819D02*
X29528761Y-40176819D01*
X29243047Y-40176819D02*
X29243047Y-39176819D01*
X29243047Y-39176819D02*
X29338285Y-39319676D01*
X29338285Y-39319676D02*
X29433523Y-39414914D01*
X29433523Y-39414914D02*
X29528761Y-39462533D01*
X47049904Y-46914819D02*
X47049904Y-47724342D01*
X47049904Y-47724342D02*
X47002285Y-47819580D01*
X47002285Y-47819580D02*
X46954666Y-47867200D01*
X46954666Y-47867200D02*
X46859428Y-47914819D01*
X46859428Y-47914819D02*
X46668952Y-47914819D01*
X46668952Y-47914819D02*
X46573714Y-47867200D01*
X46573714Y-47867200D02*
X46526095Y-47819580D01*
X46526095Y-47819580D02*
X46478476Y-47724342D01*
X46478476Y-47724342D02*
X46478476Y-46914819D01*
X45478476Y-47914819D02*
X46049904Y-47914819D01*
X45764190Y-47914819D02*
X45764190Y-46914819D01*
X45764190Y-46914819D02*
X45859428Y-47057676D01*
X45859428Y-47057676D02*
X45954666Y-47152914D01*
X45954666Y-47152914D02*
X46049904Y-47200533D01*
X79857904Y-37568819D02*
X79857904Y-38378342D01*
X79857904Y-38378342D02*
X79810285Y-38473580D01*
X79810285Y-38473580D02*
X79762666Y-38521200D01*
X79762666Y-38521200D02*
X79667428Y-38568819D01*
X79667428Y-38568819D02*
X79476952Y-38568819D01*
X79476952Y-38568819D02*
X79381714Y-38521200D01*
X79381714Y-38521200D02*
X79334095Y-38473580D01*
X79334095Y-38473580D02*
X79286476Y-38378342D01*
X79286476Y-38378342D02*
X79286476Y-37568819D01*
X78905523Y-37568819D02*
X78286476Y-37568819D01*
X78286476Y-37568819D02*
X78619809Y-37949771D01*
X78619809Y-37949771D02*
X78476952Y-37949771D01*
X78476952Y-37949771D02*
X78381714Y-37997390D01*
X78381714Y-37997390D02*
X78334095Y-38045009D01*
X78334095Y-38045009D02*
X78286476Y-38140247D01*
X78286476Y-38140247D02*
X78286476Y-38378342D01*
X78286476Y-38378342D02*
X78334095Y-38473580D01*
X78334095Y-38473580D02*
X78381714Y-38521200D01*
X78381714Y-38521200D02*
X78476952Y-38568819D01*
X78476952Y-38568819D02*
X78762666Y-38568819D01*
X78762666Y-38568819D02*
X78857904Y-38521200D01*
X78857904Y-38521200D02*
X78905523Y-38473580D01*
D11*
%TO.C,JP1*%
X31524000Y-38222000D02*
G75*
G02*
X30824000Y-38922000I-700000J0D01*
G01*
X30824000Y-36922000D02*
G75*
G02*
X31524000Y-37622000I0J-700000D01*
G01*
X29424000Y-38922000D02*
G75*
G02*
X28724000Y-38222000I-1J699999D01*
G01*
X28724000Y-37622000D02*
G75*
G02*
X29424000Y-36922000I699999J1D01*
G01*
X31524000Y-37622000D02*
X31524000Y-38222000D01*
X30824000Y-38922000D02*
X29424000Y-38922000D01*
X29424000Y-36922000D02*
X30824000Y-36922000D01*
X28724000Y-38222000D02*
X28724000Y-37622000D01*
%TO.C,U1*%
X54788000Y-30160000D02*
X54548000Y-29824000D01*
X55028000Y-29824000D01*
X54788000Y-30160000D01*
G36*
X54788000Y-30160000D02*
G01*
X54548000Y-29824000D01*
X55028000Y-29824000D01*
X54788000Y-30160000D01*
G37*
X54408000Y-46580000D02*
X38168000Y-46580000D01*
X54408000Y-45760000D02*
X54408000Y-46580000D01*
X54408000Y-43760000D02*
X54408000Y-44160000D01*
X54408000Y-41760000D02*
X54408000Y-42160000D01*
X54408000Y-39760000D02*
X54408000Y-40160000D01*
X54408000Y-37760000D02*
X54408000Y-38160000D01*
X54408000Y-35760000D02*
X54408000Y-36160000D01*
X54408000Y-33760000D02*
X54408000Y-34160000D01*
X54408000Y-31760000D02*
X54408000Y-32160000D01*
X38168000Y-46580000D02*
X38168000Y-45760000D01*
X38168000Y-43760000D02*
X38168000Y-44160000D01*
X38168000Y-41760000D02*
X38168000Y-42160000D01*
X38168000Y-39760000D02*
X38168000Y-40160000D01*
X38168000Y-37760000D02*
X38168000Y-38160000D01*
X38168000Y-35760000D02*
X38168000Y-36160000D01*
X38168000Y-33760000D02*
X38168000Y-34160000D01*
X38168000Y-31760000D02*
X38168000Y-32160000D01*
%TO.C,U3*%
X76206000Y-41754000D02*
X75726000Y-41754000D01*
X75966000Y-41424000D01*
X76206000Y-41754000D01*
G36*
X76206000Y-41754000D02*
G01*
X75726000Y-41754000D01*
X75966000Y-41424000D01*
X76206000Y-41754000D01*
G37*
X81006000Y-41524000D02*
X77246000Y-41524000D01*
X81006000Y-40264000D02*
X81006000Y-41524000D01*
X81006000Y-35964000D02*
X81006000Y-34704000D01*
X81006000Y-34704000D02*
X77246000Y-34704000D01*
%TD*%
M02*
