%TF.GenerationSoftware,KiCad,Pcbnew,8.0.0*%
%TF.CreationDate,2025-10-18T16:25:46-03:00*%
%TF.ProjectId,NodoVibraciones,4e6f646f-5669-4627-9261-63696f6e6573,v0.0.0.1*%
%TF.SameCoordinates,Original*%
%TF.FileFunction,Soldermask,Top*%
%TF.FilePolarity,Negative*%
%FSLAX46Y46*%
G04 Gerber Fmt 4.6, Leading zero omitted, Abs format (unit mm)*
G04 Created by KiCad (PCBNEW 8.0.0) date 2025-10-18 16:25:46*
%MOMM*%
%LPD*%
G01*
G04 APERTURE LIST*
%ADD10C,3.200000*%
%ADD11O,1.700000X1.700000*%
%ADD12R,1.700000X1.700000*%
%ADD13O,1.600000X1.600000*%
%ADD14C,1.600000*%
%ADD15C,1.800000*%
%ADD16R,1.800000X1.800000*%
%ADD17C,1.524000*%
%ADD18R,1.600000X1.600000*%
%ADD19O,1.800000X1.800000*%
%ADD20C,2.000000*%
G04 APERTURE END LIST*
D10*
%TO.C,H4*%
X26710000Y-28524000D03*
%TD*%
D11*
%TO.C,J1*%
X70144000Y-47574000D03*
D12*
X70144000Y-45034000D03*
%TD*%
D13*
%TO.C,R5*%
X60046000Y-38114000D03*
D14*
X60046000Y-48274000D03*
%TD*%
D11*
%TO.C,J2*%
X26710000Y-34874000D03*
X29250000Y-34874000D03*
X31790000Y-34874000D03*
D12*
X34330000Y-34874000D03*
%TD*%
D14*
%TO.C,C3*%
X75986000Y-30302000D03*
X75986000Y-32802000D03*
%TD*%
D10*
%TO.C,H1*%
X81828000Y-28778000D03*
%TD*%
D11*
%TO.C,J4*%
X54513000Y-53630000D03*
X51973000Y-53630000D03*
X49433000Y-53630000D03*
X46893000Y-53630000D03*
X44353000Y-53630000D03*
X41813000Y-53630000D03*
X39273000Y-53630000D03*
D12*
X36733000Y-53630000D03*
%TD*%
D15*
%TO.C,D4*%
X65888000Y-51576000D03*
D16*
X65888000Y-54116000D03*
%TD*%
D15*
%TO.C,D3*%
X72492000Y-51576000D03*
D16*
X72492000Y-54116000D03*
%TD*%
D17*
%TO.C,U2*%
X54523000Y-49860000D03*
X51983000Y-49860000D03*
X49443000Y-49860000D03*
X46903000Y-49860000D03*
X44363000Y-49860000D03*
X41823000Y-49860000D03*
X39283000Y-49860000D03*
X36743000Y-49860000D03*
%TD*%
D14*
%TO.C,C1*%
X32298000Y-51598000D03*
D18*
X32298000Y-49098000D03*
%TD*%
D14*
%TO.C,C2*%
X25988000Y-47320000D03*
X28488000Y-47320000D03*
%TD*%
D13*
%TO.C,R4*%
X36108000Y-44272000D03*
D14*
X25948000Y-44272000D03*
%TD*%
D19*
%TO.C,D2*%
X72746000Y-41924000D03*
D16*
X72746000Y-31764000D03*
%TD*%
D13*
%TO.C,R2*%
X69444000Y-41924000D03*
D14*
X69444000Y-31764000D03*
%TD*%
D13*
%TO.C,R3*%
X56871000Y-48274000D03*
D14*
X56871000Y-38114000D03*
%TD*%
D13*
%TO.C,R6*%
X66396000Y-38114000D03*
D14*
X66396000Y-48274000D03*
%TD*%
D13*
%TO.C,R7*%
X63221000Y-38114000D03*
D14*
X63221000Y-48274000D03*
%TD*%
D20*
%TO.C,SW2*%
X59476000Y-31038000D03*
X65976000Y-31038000D03*
X59476000Y-35538000D03*
X65976000Y-35538000D03*
%TD*%
D10*
%TO.C,H3*%
X26964000Y-54432000D03*
%TD*%
D13*
%TO.C,R1*%
X25948000Y-41224000D03*
D14*
X36108000Y-41224000D03*
%TD*%
D10*
%TO.C,H2*%
X81574000Y-53924000D03*
%TD*%
D15*
%TO.C,D1*%
X59416000Y-51576000D03*
D16*
X59416000Y-54116000D03*
%TD*%
M02*
