%TF.GenerationSoftware,KiCad,Pcbnew,8.0.0*%
%TF.CreationDate,2025-10-18T16:25:46-03:00*%
%TF.ProjectId,NodoVibraciones,4e6f646f-5669-4627-9261-63696f6e6573,v0.0.0.1*%
%TF.SameCoordinates,Original*%
%TF.FileFunction,Copper,L1,Top*%
%TF.FilePolarity,Positive*%
%FSLAX46Y46*%
G04 Gerber Fmt 4.6, Leading zero omitted, Abs format (unit mm)*
G04 Created by KiCad (PCBNEW 8.0.0) date 2025-10-18 16:25:46*
%MOMM*%
%LPD*%
G01*
G04 APERTURE LIST*
%TA.AperFunction,ComponentPad*%
%ADD10O,1.700000X1.700000*%
%TD*%
%TA.AperFunction,ComponentPad*%
%ADD11R,1.700000X1.700000*%
%TD*%
%TA.AperFunction,ComponentPad*%
%ADD12O,1.600000X1.600000*%
%TD*%
%TA.AperFunction,ComponentPad*%
%ADD13C,1.600000*%
%TD*%
%TA.AperFunction,ComponentPad*%
%ADD14C,1.800000*%
%TD*%
%TA.AperFunction,ComponentPad*%
%ADD15R,1.800000X1.800000*%
%TD*%
%TA.AperFunction,ComponentPad*%
%ADD16C,1.524000*%
%TD*%
%TA.AperFunction,ComponentPad*%
%ADD17R,1.600000X1.600000*%
%TD*%
%TA.AperFunction,ComponentPad*%
%ADD18O,1.800000X1.800000*%
%TD*%
%TA.AperFunction,ComponentPad*%
%ADD19C,2.000000*%
%TD*%
%TA.AperFunction,ViaPad*%
%ADD20C,1.200000*%
%TD*%
%TA.AperFunction,Conductor*%
%ADD21C,0.800000*%
%TD*%
G04 APERTURE END LIST*
D10*
%TO.P,J1,2,Pin_2*%
%TO.N,GNDREF*%
X70144000Y-47574000D03*
D11*
%TO.P,J1,1,Pin_1*%
%TO.N,/Vbat*%
X70144000Y-45034000D03*
%TD*%
D12*
%TO.P,R5,2*%
%TO.N,/led-aux*%
X60046000Y-38114000D03*
D13*
%TO.P,R5,1*%
%TO.N,Net-(D1-A)*%
X60046000Y-48274000D03*
%TD*%
D10*
%TO.P,J2,4,Pin_4*%
%TO.N,VCC*%
X26710000Y-34874000D03*
%TO.P,J2,3,Pin_3*%
%TO.N,GNDREF*%
X29250000Y-34874000D03*
%TO.P,J2,2,Pin_2*%
%TO.N,RX*%
X31790000Y-34874000D03*
D11*
%TO.P,J2,1,Pin_1*%
%TO.N,TX*%
X34330000Y-34874000D03*
%TD*%
D13*
%TO.P,C3,2*%
%TO.N,GNDREF*%
X75986000Y-30302000D03*
%TO.P,C3,1*%
%TO.N,/Vin*%
X75986000Y-32802000D03*
%TD*%
D10*
%TO.P,J4,8,Pin_8*%
%TO.N,int1*%
X54513000Y-53630000D03*
%TO.P,J4,7,Pin_7*%
%TO.N,VCC*%
X51973000Y-53630000D03*
%TO.P,J4,6,Pin_6*%
%TO.N,unconnected-(J4-Pin_6-Pad6)*%
X49433000Y-53630000D03*
%TO.P,J4,5,Pin_5*%
%TO.N,unconnected-(J4-Pin_5-Pad5)*%
X46893000Y-53630000D03*
%TO.P,J4,4,Pin_4*%
%TO.N,SDA*%
X44353000Y-53630000D03*
%TO.P,J4,3,Pin_3*%
%TO.N,SCL*%
X41813000Y-53630000D03*
%TO.P,J4,2,Pin_2*%
%TO.N,GNDREF*%
X39273000Y-53630000D03*
D11*
%TO.P,J4,1,Pin_1*%
%TO.N,VCC*%
X36733000Y-53630000D03*
%TD*%
D14*
%TO.P,D4,2,A*%
%TO.N,Net-(D4-A)*%
X65888000Y-51576000D03*
D15*
%TO.P,D4,1,K*%
%TO.N,GNDREF*%
X65888000Y-54116000D03*
%TD*%
D14*
%TO.P,D3,2,A*%
%TO.N,Net-(D3-A)*%
X72492000Y-51576000D03*
D15*
%TO.P,D3,1,K*%
%TO.N,GNDREF*%
X72492000Y-54116000D03*
%TD*%
D16*
%TO.P,U2,8,INT*%
%TO.N,int1*%
X54523000Y-49860000D03*
%TO.P,U2,7,ADD*%
%TO.N,GNDREF*%
X51983000Y-49860000D03*
%TO.P,U2,6,XCL*%
%TO.N,unconnected-(U2-XCL-Pad6)*%
X49443000Y-49860000D03*
%TO.P,U2,5,XDA*%
%TO.N,unconnected-(U2-XDA-Pad5)*%
X46903000Y-49860000D03*
%TO.P,U2,4,SDA*%
%TO.N,SDA*%
X44363000Y-49860000D03*
%TO.P,U2,3,SCL*%
%TO.N,SCL*%
X41823000Y-49860000D03*
%TO.P,U2,2,GND*%
%TO.N,GNDREF*%
X39283000Y-49860000D03*
%TO.P,U2,1,VCC*%
%TO.N,VCC*%
X36743000Y-49860000D03*
%TD*%
D13*
%TO.P,C1,2*%
%TO.N,GNDREF*%
X32298000Y-51598000D03*
D17*
%TO.P,C1,1*%
%TO.N,VCC*%
X32298000Y-49098000D03*
%TD*%
D13*
%TO.P,C2,2*%
%TO.N,GNDREF*%
X25988000Y-47320000D03*
%TO.P,C2,1*%
%TO.N,VCC*%
X28488000Y-47320000D03*
%TD*%
D12*
%TO.P,R4,2*%
%TO.N,/magic*%
X36108000Y-44272000D03*
D13*
%TO.P,R4,1*%
%TO.N,GNDREF*%
X25948000Y-44272000D03*
%TD*%
D18*
%TO.P,D2,2,A*%
%TO.N,/Vbat*%
X72746000Y-41924000D03*
D15*
%TO.P,D2,1,K*%
%TO.N,/Vin*%
X72746000Y-31764000D03*
%TD*%
D12*
%TO.P,R2,2*%
%TO.N,VCC*%
X69444000Y-41924000D03*
D13*
%TO.P,R2,1*%
%TO.N,int1*%
X69444000Y-31764000D03*
%TD*%
D12*
%TO.P,R3,2*%
%TO.N,VCC*%
X56871000Y-48274000D03*
D13*
%TO.P,R3,1*%
%TO.N,/EN*%
X56871000Y-38114000D03*
%TD*%
D12*
%TO.P,R6,2*%
%TO.N,/led-data*%
X66396000Y-38114000D03*
D13*
%TO.P,R6,1*%
%TO.N,Net-(D3-A)*%
X66396000Y-48274000D03*
%TD*%
D12*
%TO.P,R7,2*%
%TO.N,/led-wifi*%
X63221000Y-38114000D03*
D13*
%TO.P,R7,1*%
%TO.N,Net-(D4-A)*%
X63221000Y-48274000D03*
%TD*%
D19*
%TO.P,SW2,2,2*%
%TO.N,GNDREF*%
X59476000Y-31038000D03*
X65976000Y-31038000D03*
%TO.P,SW2,1,1*%
%TO.N,int1*%
X59476000Y-35538000D03*
X65976000Y-35538000D03*
%TD*%
D12*
%TO.P,R1,2*%
%TO.N,VCC*%
X25948000Y-41224000D03*
D13*
%TO.P,R1,1*%
%TO.N,boot*%
X36108000Y-41224000D03*
%TD*%
D14*
%TO.P,D1,2,A*%
%TO.N,Net-(D1-A)*%
X59416000Y-51576000D03*
D15*
%TO.P,D1,1,K*%
%TO.N,GNDREF*%
X59416000Y-54116000D03*
%TD*%
D20*
%TO.N,GNDREF*%
X46014000Y-51638000D03*
X40172000Y-51638000D03*
%TO.N,SCL*%
X41950000Y-47574000D03*
X46268000Y-47574000D03*
%TD*%
D21*
%TO.N,GNDREF*%
X40172000Y-51638000D02*
X46014000Y-51638000D01*
%TO.N,SCL*%
X41950000Y-47574000D02*
X46268000Y-47574000D01*
%TD*%
M02*
